<svg width="1670" height="1311" viewBox="0 0 1670 1311" fill="none" xmlns="http://www.w3.org/2000/svg">
<rect x="-13" y="-98" width="1728" height="1443" rx="2" fill="white"/>
<rect x="-12.5" y="-97.5" width="1727" height="1442" rx="1.5" stroke="white" stroke-opacity="0.1"/>
<path d="M663 654.565L680 751L660 755L729 741M729 741L712.5 644.5L455 696.86M729 741L794 1119L541 1168.98M455 696.86L383 711.5L449.468 1094.5M455 696.86L521.5 1079.5L497 1084.6M449.468 1094.5L454.587 1124M449.468 1094.5L468.676 1090.5M454.587 1124L465 1184L541 1168.98M454.587 1124L474.5 1119.88M541 1168.98L529.5 1108.5L502.862 1114.01M497 1084.6L493.5 1085.33M497 1084.6L499.931 1099.31M502.862 1114.01L499.5 1114.71M502.862 1114.01L499.931 1099.31M493.5 1085.33L499.5 1114.71M493.5 1085.33L490 1086.06M499.5 1114.71L496 1115.43M490 1086.06L496 1115.43M490 1086.06L486.5 1086.79M496 1115.43L492.513 1116.15M486.5 1086.79L492.513 1116.15M486.5 1086.79L482.942 1087.53M492.513 1116.15L489 1116.88M482.942 1087.53L489 1116.88M482.942 1087.53L479.5 1088.25M489 1116.88L485.5 1117.6M479.5 1088.25L485.5 1117.6M479.5 1088.25L476 1088.97M485.5 1117.6L482 1118.33M476 1088.97L482 1118.33M476 1088.97L472.432 1089.72M482 1118.33L478.345 1119.08M472.432 1089.72L478.345 1119.08M472.432 1089.72L468.676 1090.5M478.345 1119.08L474.5 1119.88M468.676 1090.5L471.604 1105.27M474.5 1119.88L471.604 1105.27M499.931 1099.31L471.604 1105.27M506.5 822.5L639.5 795L683 1051.5L551 1078.5L506.5 822.5Z" stroke="black"/>
<path d="M557.289 918.234L555.537 918.522C555.484 918.346 555.409 918.192 555.313 918.059C555.217 917.926 555.101 917.818 554.965 917.735C554.829 917.652 554.674 917.597 554.502 917.57C554.332 917.54 554.148 917.542 553.952 917.574C553.604 917.631 553.318 917.766 553.094 917.978C552.872 918.189 552.719 918.467 552.637 918.812C552.557 919.156 552.554 919.557 552.63 920.015C552.708 920.492 552.842 920.88 553.03 921.18C553.221 921.478 553.453 921.688 553.728 921.811C554.004 921.931 554.313 921.963 554.654 921.907C554.845 921.875 555.015 921.822 555.164 921.747C555.315 921.672 555.442 921.578 555.546 921.465C555.651 921.349 555.732 921.217 555.786 921.069C555.843 920.918 555.873 920.754 555.874 920.576L557.628 920.298C557.65 920.621 557.609 920.949 557.506 921.283C557.405 921.616 557.242 921.932 557.018 922.23C556.793 922.526 556.501 922.781 556.143 922.993C555.786 923.205 555.362 923.352 554.869 923.433C554.219 923.54 553.614 923.493 553.054 923.293C552.495 923.089 552.022 922.738 551.635 922.238C551.248 921.737 550.99 921.094 550.86 920.306C550.73 919.517 550.771 918.823 550.982 918.224C551.193 917.626 551.532 917.142 551.999 916.772C552.466 916.403 553.019 916.165 553.656 916.061C554.091 915.989 554.503 915.984 554.892 916.044C555.28 916.103 555.634 916.225 555.952 916.41C556.27 916.593 556.544 916.837 556.774 917.142C557.005 917.447 557.176 917.811 557.289 918.234ZM567.191 917.621C567.321 918.41 567.279 919.104 567.065 919.703C566.852 920.302 566.509 920.787 566.038 921.157C565.568 921.527 565.012 921.765 564.37 921.87C563.725 921.976 563.121 921.928 562.558 921.726C561.994 921.523 561.516 921.174 561.122 920.677C560.73 920.178 560.47 919.534 560.34 918.747C560.21 917.958 560.251 917.264 560.462 916.665C560.675 916.066 561.017 915.582 561.486 915.212C561.956 914.842 562.513 914.604 563.157 914.498C563.8 914.392 564.403 914.439 564.966 914.64C565.531 914.839 566.011 915.189 566.405 915.688C566.799 916.187 567.061 916.831 567.191 917.621ZM565.418 917.912C565.341 917.445 565.209 917.061 565.023 916.761C564.839 916.46 564.61 916.247 564.335 916.122C564.062 915.996 563.753 915.962 563.408 916.019C563.064 916.075 562.782 916.207 562.562 916.413C562.342 916.62 562.191 916.895 562.111 917.24C562.033 917.583 562.033 917.989 562.11 918.456C562.187 918.923 562.317 919.307 562.501 919.608C562.687 919.909 562.918 920.122 563.192 920.247C563.467 920.372 563.776 920.406 564.12 920.35C564.466 920.293 564.747 920.161 564.965 919.955C565.186 919.748 565.335 919.473 565.413 919.129C565.493 918.785 565.494 918.379 565.418 917.912ZM570.767 920.718L569.587 913.541L571.321 913.256L572.27 919.024L575.255 918.533L575.487 919.941L570.767 920.718ZM578.358 919.469L577.178 912.293L578.913 912.007L579.861 917.775L582.847 917.284L583.078 918.693L578.358 919.469ZM585.95 918.22L584.769 911.044L589.773 910.221L590.005 911.63L586.736 912.167L586.978 913.639L589.991 913.144L590.223 914.556L587.21 915.051L587.453 916.527L590.722 915.989L590.954 917.397L585.95 918.22ZM597.928 911.288C597.864 911.147 597.784 911.027 597.689 910.927C597.593 910.826 597.482 910.744 597.357 910.683C597.232 910.622 597.094 910.584 596.942 910.568C596.791 910.55 596.628 910.555 596.455 910.583C596.107 910.641 595.82 910.774 595.593 910.984C595.368 911.194 595.213 911.471 595.129 911.816C595.043 912.159 595.039 912.559 595.114 913.017C595.19 913.477 595.321 913.859 595.507 914.162C595.694 914.465 595.927 914.68 596.208 914.81C596.488 914.939 596.808 914.973 597.168 914.914C597.485 914.862 597.746 914.766 597.948 914.628C598.153 914.486 598.297 914.31 598.38 914.1C598.463 913.889 598.483 913.654 598.44 913.395L598.769 913.381L597.024 913.668L596.816 912.403L599.91 911.894L600.066 912.843C600.172 913.486 600.126 914.058 599.928 914.561C599.732 915.064 599.416 915.477 598.98 915.8C598.546 916.124 598.021 916.336 597.404 916.437C596.719 916.55 596.093 916.501 595.526 916.289C594.959 916.078 594.485 915.721 594.105 915.22C593.725 914.716 593.472 914.086 593.348 913.329C593.251 912.741 593.253 912.204 593.353 911.72C593.453 911.233 593.633 910.805 593.894 910.436C594.157 910.066 594.482 909.766 594.869 909.534C595.257 909.302 595.691 909.147 596.17 909.068C596.586 909 596.982 908.996 597.359 909.056C597.739 909.116 598.084 909.232 598.396 909.404C598.709 909.576 598.977 909.797 599.199 910.067C599.421 910.338 599.583 910.648 599.684 910.999L597.928 911.288ZM603.551 915.326L602.371 908.149L607.375 907.326L607.606 908.735L604.337 909.273L604.579 910.744L607.593 910.249L607.825 911.661L604.811 912.156L605.054 913.632L608.323 913.094L608.555 914.503L603.551 915.326ZM621.891 908.624C622.021 909.414 621.979 910.108 621.766 910.707C621.553 911.306 621.21 911.79 620.738 912.16C620.269 912.53 619.713 912.768 619.071 912.874C618.426 912.98 617.822 912.932 617.258 912.729C616.695 912.527 616.216 912.177 615.823 911.681C615.431 911.181 615.17 910.538 615.041 909.751C614.911 908.961 614.952 908.267 615.163 907.668C615.376 907.07 615.717 906.585 616.187 906.215C616.656 905.845 617.213 905.607 617.858 905.501C618.5 905.396 619.103 905.443 619.666 905.643C620.232 905.843 620.712 906.192 621.106 906.691C621.5 907.19 621.761 907.834 621.891 908.624ZM620.118 908.916C620.041 908.448 619.91 908.065 619.724 907.764C619.54 907.463 619.311 907.25 619.036 907.125C618.763 907 618.454 906.965 618.108 907.022C617.765 907.079 617.483 907.21 617.263 907.417C617.042 907.623 616.892 907.899 616.812 908.243C616.734 908.587 616.734 908.992 616.81 909.46C616.887 909.927 617.018 910.311 617.201 910.612C617.388 910.912 617.618 911.125 617.893 911.25C618.168 911.375 618.477 911.41 618.821 911.353C619.166 911.296 619.448 911.165 619.666 910.958C619.886 910.752 620.036 910.477 620.113 910.133C620.193 909.788 620.195 909.383 620.118 908.916ZM625.468 911.721L624.287 904.545L629.186 903.739L629.418 905.148L626.254 905.668L626.496 907.14L629.348 906.671L629.58 908.083L626.728 908.552L627.202 911.436L625.468 911.721ZM544.733 937.161L542.869 937.467L544.11 929.893L546.419 929.513L550.021 936.291L548.156 936.598L545.588 931.507L545.532 931.516L544.733 937.161ZM544.02 934.377L547.916 933.736L548.133 935.054L544.236 935.695L544.02 934.377ZM552.767 935.839L551.586 928.663L554.551 928.175C555.088 928.087 555.568 928.108 555.99 928.237C556.414 928.364 556.762 928.59 557.033 928.915C557.305 929.238 557.481 929.644 557.561 930.135C557.643 930.632 557.604 931.073 557.444 931.457C557.284 931.838 557.019 932.153 556.649 932.401C556.279 932.646 555.821 932.814 555.275 932.904L553.4 933.212L553.175 931.846L554.727 931.59C554.989 931.547 555.202 931.478 555.366 931.381C555.532 931.282 555.649 931.155 555.717 930.999C555.785 930.842 555.8 930.652 555.764 930.43C555.727 930.208 555.652 930.033 555.537 929.903C555.421 929.77 555.269 929.683 555.079 929.64C554.89 929.594 554.665 929.593 554.406 929.635L553.551 929.776L554.501 935.554L552.767 935.839ZM556.267 931.895L558.594 934.881L556.702 935.192L554.41 932.2L556.267 931.895ZM567.035 928.793L565.283 929.081C565.23 928.905 565.155 928.75 565.059 928.617C564.963 928.484 564.847 928.376 564.711 928.293C564.575 928.21 564.42 928.155 564.248 928.128C564.078 928.098 563.894 928.1 563.698 928.132C563.35 928.189 563.064 928.324 562.84 928.536C562.618 928.748 562.465 929.026 562.383 929.37C562.303 929.715 562.3 930.116 562.376 930.574C562.454 931.05 562.588 931.439 562.776 931.739C562.967 932.036 563.199 932.246 563.474 932.369C563.75 932.489 564.059 932.521 564.4 932.465C564.591 932.433 564.761 932.38 564.91 932.305C565.061 932.23 565.188 932.136 565.292 932.023C565.397 931.907 565.478 931.775 565.532 931.627C565.589 931.476 565.619 931.312 565.621 931.134L567.374 930.856C567.396 931.179 567.355 931.507 567.252 931.841C567.151 932.174 566.988 932.49 566.764 932.789C566.539 933.085 566.247 933.339 565.889 933.552C565.532 933.764 565.108 933.91 564.615 933.991C563.966 934.098 563.36 934.051 562.8 933.851C562.241 933.648 561.768 933.296 561.381 932.796C560.994 932.296 560.736 931.652 560.606 930.865C560.476 930.075 560.517 929.381 560.728 928.783C560.939 928.184 561.278 927.7 561.745 927.33C562.212 926.961 562.765 926.724 563.402 926.619C563.837 926.547 564.249 926.542 564.638 926.603C565.026 926.661 565.38 926.783 565.698 926.968C566.016 927.151 566.29 927.395 566.52 927.7C566.751 928.006 566.922 928.37 567.035 928.793ZM570.753 932.881L569.573 925.705L571.308 925.419L571.781 928.3L574.609 927.835L574.135 924.954L575.867 924.67L577.047 931.846L575.316 932.131L574.841 929.247L572.014 929.712L572.488 932.596L570.753 932.881ZM580.663 923.881L581.843 931.057L580.108 931.342L578.928 924.166L580.663 923.881ZM583.722 924.824L583.49 923.416L589.556 922.418L589.787 923.827L587.611 924.185L588.56 929.952L586.85 930.234L585.901 924.466L583.722 924.824ZM593.557 929.131L592.376 921.954L597.38 921.131L597.612 922.54L594.342 923.078L594.584 924.549L597.598 924.054L597.83 925.466L594.817 925.961L595.059 927.437L598.329 926.899L598.56 928.308L593.557 929.131ZM607.381 922.157L605.629 922.445C605.576 922.269 605.502 922.114 605.406 921.981C605.309 921.849 605.193 921.74 605.057 921.657C604.921 921.574 604.767 921.519 604.595 921.492C604.424 921.463 604.241 921.464 604.045 921.496C603.697 921.554 603.41 921.688 603.186 921.9C602.964 922.112 602.812 922.39 602.73 922.735C602.649 923.079 602.647 923.48 602.722 923.938C602.801 924.414 602.934 924.803 603.123 925.103C603.313 925.4 603.546 925.61 603.82 925.733C604.097 925.853 604.405 925.885 604.746 925.829C604.938 925.798 605.108 925.744 605.256 925.67C605.407 925.594 605.535 925.5 605.638 925.387C605.744 925.272 605.824 925.14 605.879 924.991C605.936 924.84 605.965 924.676 605.967 924.498L607.721 924.221C607.743 924.543 607.702 924.872 607.599 925.205C607.497 925.539 607.335 925.854 607.11 926.153C606.885 926.449 606.594 926.703 606.235 926.916C605.879 927.128 605.454 927.275 604.962 927.356C604.312 927.462 603.707 927.416 603.146 927.215C602.587 927.012 602.114 926.66 601.727 926.16C601.341 925.66 601.082 925.016 600.953 924.229C600.823 923.439 600.864 922.745 601.075 922.147C601.286 921.548 601.625 921.064 602.092 920.695C602.559 920.325 603.111 920.088 603.749 919.983C604.183 919.912 604.595 919.906 604.984 919.967C605.373 920.025 605.727 920.147 606.045 920.332C606.363 920.515 606.637 920.759 606.867 921.064C607.097 921.37 607.269 921.734 607.381 922.157ZM609.917 920.516L609.685 919.107L615.751 918.11L615.982 919.519L613.806 919.876L614.755 925.644L613.045 925.925L612.096 920.158L609.917 920.516ZM622.913 916.932L624.644 916.647L625.405 921.276C625.493 921.811 625.442 922.298 625.253 922.737C625.063 923.174 624.759 923.538 624.339 923.83C623.919 924.12 623.407 924.315 622.804 924.414C622.195 924.514 621.644 924.494 621.154 924.354C620.662 924.212 620.258 923.964 619.941 923.611C619.623 923.255 619.42 922.81 619.332 922.275L618.571 917.646L620.306 917.361L621.042 921.839C621.083 922.087 621.173 922.298 621.312 922.475C621.454 922.651 621.632 922.777 621.846 922.855C622.061 922.932 622.297 922.95 622.557 922.907C622.816 922.864 623.034 922.772 623.209 922.631C623.388 922.488 623.516 922.311 623.593 922.099C623.671 921.888 623.69 921.658 623.649 921.41L622.913 916.932ZM628.885 923.32L627.704 916.144L630.669 915.656C631.206 915.568 631.686 915.589 632.108 915.718C632.532 915.845 632.88 916.071 633.151 916.396C633.423 916.719 633.599 917.125 633.679 917.616C633.761 918.113 633.722 918.554 633.562 918.938C633.402 919.319 633.137 919.634 632.767 919.882C632.397 920.127 631.939 920.295 631.393 920.385L629.518 920.693L629.293 919.327L630.845 919.071C631.107 919.028 631.32 918.959 631.484 918.862C631.65 918.763 631.767 918.635 631.835 918.48C631.903 918.323 631.918 918.133 631.882 917.911C631.845 917.689 631.77 917.513 631.655 917.384C631.539 917.251 631.387 917.164 631.197 917.12C631.008 917.075 630.783 917.073 630.524 917.116L629.669 917.257L630.619 923.035L628.885 923.32ZM632.385 919.376L634.712 922.362L632.82 922.673L630.528 919.681L632.385 919.376ZM637.391 921.921L636.211 914.745L641.215 913.922L641.447 915.33L638.177 915.868L638.419 917.34L641.433 916.844L641.665 918.256L638.652 918.752L638.894 920.227L642.164 919.689L642.395 921.098L637.391 921.921ZM547.25 948.908L545.386 949.214L546.627 941.64L548.936 941.26L552.537 948.038L550.673 948.345L548.105 943.254L548.049 943.263L547.25 948.908ZM546.537 946.124L550.433 945.484L550.65 946.801L546.753 947.442L546.537 946.124ZM560.211 939.406L561.391 946.582L559.919 946.824L556.382 943.152L556.337 943.159L557.018 947.301L555.284 947.587L554.103 940.41L555.596 940.165L559.1 943.835L559.16 943.825L558.48 939.69L560.211 939.406ZM567.108 945.642L564.455 946.078L563.275 938.902L565.924 938.466C566.655 938.346 567.308 938.386 567.884 938.586C568.461 938.784 568.937 939.128 569.313 939.618C569.688 940.106 569.937 940.722 570.06 941.467C570.183 942.215 570.145 942.881 569.946 943.466C569.749 944.05 569.409 944.529 568.926 944.904C568.443 945.276 567.837 945.522 567.108 945.642ZM565.947 944.314L566.798 944.174C567.2 944.108 567.529 943.984 567.784 943.803C568.042 943.619 568.217 943.361 568.309 943.03C568.402 942.695 568.407 942.27 568.322 941.753C568.237 941.237 568.097 940.838 567.902 940.556C567.706 940.271 567.456 940.084 567.151 939.995C566.848 939.904 566.491 939.892 566.08 939.959L565.253 940.095L565.947 944.314ZM577.73 943.895L576.55 936.718L581.448 935.913L581.68 937.321L578.516 937.842L578.758 939.314L581.61 938.844L581.843 940.257L578.99 940.726L579.465 943.609L577.73 943.895ZM586.03 935.159L587.21 942.336L585.476 942.621L584.295 935.445L586.03 935.159ZM595.2 933.651L596.38 940.827L594.908 941.069L591.371 937.397L591.326 937.405L592.007 941.547L590.273 941.832L589.092 934.656L590.585 934.41L594.089 938.08L594.149 938.071L593.469 933.936L595.2 933.651ZM599.444 940.323L598.264 933.147L603.268 932.324L603.499 933.733L600.23 934.271L600.472 935.742L603.486 935.247L603.718 936.659L600.704 937.154L600.947 938.63L604.216 938.092L604.448 939.5L599.444 940.323ZM613.153 938.069L611.289 938.375L612.53 930.801L614.84 930.421L618.441 937.199L616.577 937.506L614.009 932.415L613.953 932.424L613.153 938.069ZM612.44 935.285L616.337 934.644L616.553 935.962L612.657 936.603L612.44 935.285ZM621.187 936.747L620.007 929.571L622.971 929.084C623.509 928.995 623.988 929.016 624.41 929.146C624.834 929.273 625.182 929.498 625.454 929.823C625.725 930.146 625.901 930.552 625.982 931.043C626.064 931.54 626.025 931.981 625.865 932.365C625.704 932.746 625.439 933.061 625.07 933.309C624.7 933.554 624.242 933.722 623.695 933.812L621.82 934.12L621.596 932.754L623.148 932.499C623.41 932.456 623.622 932.386 623.787 932.289C623.953 932.19 624.07 932.063 624.138 931.908C624.205 931.75 624.221 931.56 624.184 931.338C624.148 931.117 624.072 930.941 623.957 930.811C623.842 930.679 623.69 930.591 623.5 930.548C623.31 930.502 623.086 930.501 622.826 930.543L621.971 930.684L622.922 936.462L621.187 936.747ZM624.688 932.803L627.015 935.789L625.122 936.1L622.831 933.109L624.688 932.803ZM628.511 929.619L628.279 928.211L634.345 927.213L634.576 928.622L632.4 928.98L633.349 934.747L631.639 935.028L630.69 929.261L628.511 929.619ZM641.398 928.263C641.332 928.009 641.196 927.827 640.988 927.715C640.782 927.6 640.509 927.57 640.17 927.626C639.946 927.663 639.764 927.723 639.624 927.806C639.484 927.889 639.385 927.988 639.328 928.103C639.269 928.216 639.25 928.338 639.269 928.469C639.282 928.577 639.319 928.668 639.379 928.742C639.441 928.816 639.523 928.877 639.625 928.925C639.728 928.97 639.849 929.006 639.988 929.031C640.126 929.056 640.28 929.073 640.449 929.081L641.089 929.12C641.457 929.138 641.787 929.19 642.079 929.273C642.373 929.357 642.627 929.472 642.841 929.62C643.057 929.766 643.232 929.947 643.366 930.163C643.5 930.379 643.592 930.63 643.641 930.917C643.713 931.37 643.663 931.778 643.49 932.14C643.316 932.502 643.031 932.804 642.635 933.047C642.24 933.29 641.744 933.46 641.146 933.558C640.546 933.657 640.008 933.653 639.532 933.547C639.056 933.44 638.664 933.224 638.356 932.898C638.048 932.572 637.845 932.129 637.746 931.57L639.407 931.296C639.459 931.525 639.552 931.708 639.687 931.844C639.823 931.98 639.992 932.072 640.197 932.12C640.404 932.168 640.635 932.171 640.889 932.129C641.123 932.09 641.316 932.026 641.47 931.936C641.625 931.846 641.738 931.737 641.808 931.61C641.879 931.484 641.903 931.348 641.881 931.203C641.857 931.067 641.796 930.959 641.698 930.876C641.6 930.792 641.46 930.728 641.278 930.686C641.098 930.642 640.872 930.61 640.601 930.593L639.822 930.541C639.177 930.5 638.65 930.351 638.24 930.092C637.83 929.831 637.582 929.428 637.494 928.883C637.419 928.44 637.474 928.031 637.66 927.657C637.846 927.284 638.136 926.969 638.53 926.712C638.925 926.455 639.394 926.282 639.938 926.192C640.494 926.101 640.992 926.116 641.432 926.238C641.874 926.357 642.236 926.568 642.518 926.869C642.801 927.171 642.981 927.544 643.059 927.989L641.398 928.263Z" fill="#A7A7A7"/>
</svg>
