<svg width="1728" height="1443" viewBox="0 0 1728 1443" fill="none" xmlns="http://www.w3.org/2000/svg">
<rect width="1728" height="1443" fill="#1E1E1E"/>
<path d="M0 1.99998C0 0.895409 0.895431 0 2 0H1726C1727.1 0 1728 0.89543 1728 2V1441C1728 1442.1 1727.1 1443 1726 1443H1.99999C0.895423 1443 0 1442.1 0 1441V1.99998Z" fill="white"/>
<path d="M2 1H1726V-1H2V1ZM1727 2V1441H1729V2H1727ZM1726 1442H1.99999V1444H1726V1442ZM1 1441V1.99998H-1V1441H1ZM1.99999 1442C1.44771 1442 1 1441.55 1 1441H-1C-1 1442.66 0.343133 1444 1.99999 1444V1442ZM1727 1441C1727 1441.55 1726.55 1442 1726 1442V1444C1727.66 1444 1729 1442.66 1729 1441H1727ZM1726 1C1726.55 1 1727 1.44771 1727 2H1729C1729 0.343151 1727.66 -1 1726 -1V1ZM2 -1C0.34316 -1 -1 0.343111 -1 1.99998H1C1 1.44771 1.4477 1 2 1V-1Z" fill="white" fill-opacity="0.1"/>
<path d="M1384 189L1305 217.5L1273.5 129.5L1084 209.991M797.5 1221.5L798.5 1227L726.531 1241M797.5 1221.5L856 1213M797.5 1221.5L780.191 1122M856 1213L855 1247.5L1073.5 1236.5L1075 1204M856 1213L860.234 1111.5M1075 1204L1454 1196M1075 1204L1080.9 1054M1454 1196L1458.5 1214L1522.5 1190.88M1454 1196L1412.5 1048.5M1587 755.5L1572.21 702M1587 755.5L1610.74 841M1587 755.5C1585 757.9 1572.5 778.333 1566.5 788.5L1561.5 790.5M1430 277.5L1452.5 269L1514.84 494.5M1430 277.5L1403 252M1430 277.5C1428.8 277.5 1396.5 289.833 1380.5 296L1413.5 413.5L1398.5 418.5L1429 525.5L1456 515.75M1403 252L1385.5 189M1403 252L1318.31 282.5M213 1287.5L223.5 1387.5L279 1369.44M213 1287.5L183.5 1296L152.406 1197.5M213 1287.5L242 1278.38M670.5 385.628L300 543L345.19 682.5M670.5 385.628L725.5 537M670.5 385.628L731 359.93M725.5 537L345.19 682.5M725.5 537L786 513L771.5 473M345.19 682.5L380.5 791.5L387.259 819.5M716 753C716.598 753 743.301 747.784 776.5 741.251M716 753L663.5 763.62M716 753L727.742 820.5M387.259 819.5L387.5 820.5L415.5 979.5L415.76 981M387.259 819.5L459 804.988M876.5 721.5L878.5 662M876.5 721.5C857.563 725.252 831.821 730.344 806.5 735.34M876.5 721.5L873.268 799M878.5 662L880.5 622M878.5 662L984.5 659.5L979.5 776L912 779L903 1013.5H864.321M880.5 622H856.5L858 565H843L845.5 476.5L886 475.717M880.5 622L883.207 550M880.5 622C881.675 622 900.025 621.605 921.5 621.302M1342 368L1313 378.5L1317.2 394M1342 368L1318.31 282.5M1342 368L1346.5 383M1068 320L1076 343.5L977 385.603M1068 320L1116.5 299.185M1068 320L1061.82 303M771.5 473L842.041 443M771.5 473L760.217 441.5M731 359.93L801 330.197M731 359.93L743.382 394.5M886 475.717L1337 467L1330.08 441.5M886 475.717L883.207 550M864.321 1013.5L863.299 1038M864.321 1013.5L873.268 799M863.299 1038L969 1036.5L966 1120H941M863.299 1038L860.234 1111.5M1080.9 1054L1083.5 988H1036M1080.9 1054L1412.5 1048.5M1412.5 1048.5L1373 903.5L1436 880M1436 880L1424.5 841M1436 880L1522.5 1190.88M1424.5 841L1362.5 863.5L1314.5 692.5L1372.5 675M1424.5 841L1378 673L1372.5 675M1372.5 675L1351 598.5L1345 579.5M1345 579.5L1291.5 581M1345 579.5L1342 568.5C1346 542.833 1354.1 491 1354.5 489C1354.9 487 1368 472.167 1374.5 465M1291.5 581L1293 657V658.5L1090.5 662.5V584M1291.5 581C1225.83 582 1093.7 584 1090.5 584M1090.5 584L1023 585V662.5M1023 662.5H1019.5L1007.5 963.5H1022.24M1023 662.5H1034M1036 988H1005L999 1153.5L940.322 1154.35M1036 988L1036.98 963.5M187 807.317L43.5 852.5L77 958.623M187 807.317L242 790L383 1234.5L392.5 1332.5L336.5 1350.72M187 807.317L236.5 964M236.5 964L247 960.5L262 963.763L295.5 1068.26L287 1080.5L275.5 1084.5L280.124 1099M236.5 964L189.5 979L173 928.5L123 944.189M336.5 1350.72L307.75 1360.08M336.5 1350.72L334.711 1331M913 1120H895.5L895 1155L912.371 1154.75M913 1120H917M913 1120L912.685 1137.37M912.371 1154.75L916.452 1154.69M912.371 1154.75L912.685 1137.37M917 1120L916.452 1154.69M917 1120H921M916.452 1154.69L920.429 1154.63M921 1120L920.429 1154.63M921 1120H925M920.429 1154.63L924.302 1154.58M925 1120L924.302 1154.58M925 1120H929M924.302 1154.58L928.274 1154.52M929 1120L928.274 1154.52M929 1120H933M928.274 1154.52L932.363 1154.46M933 1120L932.363 1154.46M933 1120H937M932.363 1154.46L940.322 1154.35M937 1120L936.5 1154M937 1120H941M941 1120L940.657 1137.37M940.322 1154.35L940.657 1137.37M912.685 1137.37H940.657M987.5 620.5C977.459 620.645 964.46 620.832 951 621.024M1338 467H1344M1344 467L1330.5 541.5L952 548.693M1344 467C1344.8 466.2 1360 447.667 1367.5 438.5L1365.13 429.5M883.207 550L923 549.244M923 549.244L927.5 549.063M923 549.244L922.547 571M921.5 621.302C923.307 621.276 924.642 621.271 926.5 621.245M921.5 621.302L922.006 597M952 548.693L948.5 548.759M952 548.693L951.332 597M951 621.024C949.836 621.04 948.669 621.057 947.5 621.074M951 621.024L951.332 597M948.5 548.759L947.5 621.074M948.5 548.759L944.5 548.835M947.5 621.074C946.168 621.093 944.834 621.112 943.5 621.131M944.5 548.835L943.5 621.131M944.5 548.835L940.5 548.911M943.5 621.131C942.166 621.15 940.832 621.169 939.5 621.188M940.5 548.911L939.5 621.188M940.5 548.911L936.5 548.987M939.5 621.188C938.163 621.207 936.829 621.226 935.5 621.245M936.5 548.987L935.5 621.245M936.5 548.987L932 549M935.5 621.245C934.161 621.264 932.827 621.283 931.5 621.302M932 549L931.5 621.302M932 549L927.5 549.063M931.5 621.302C929.65 621.328 928.315 621.219 926.5 621.245M927.5 549.063L926.5 621.245M922.547 571H952M922.547 571L922.006 597M951.332 597H922.006M1317.2 394L1334.85 387.75M1317.2 394L1318.08 397.25M1334.85 387.75L1338.03 386.625M1334.85 387.75L1330 372.5M1334.85 387.75L1335.79 390.875M1345 421.5L1326.29 427.5M1345 421.5L1344 418.174M1345 421.5L1349.07 435M1345 421.5L1348.01 420.5M1361.58 416L1352.5 381.5L1344 384.51M1361.58 416L1365.13 429.5M1361.58 416L1358.15 417.139M1318.31 282.5L1301 220L1116.5 299.185M1514.84 494.5L1524.8 530.5M1514.84 494.5L1487.5 504.374M1408 574L1435.5 563.758M1524.8 530.5L1549.4 619.5M1524.8 530.5L1498.5 540.294M1408 575L1414.39 598M1425.5 638L1421.47 623.5M1435.5 563.758L1441.26 584.5M1435.5 563.758L1474.5 549.232M1483.21 735.448L1572.21 702M1483.21 735.448L1455.5 745.5L1448.18 720M1483.21 735.448L1477.39 714.5M1572.21 702L1549.4 619.5M1438 684.5L1441.16 695.5M1561.5 790.5L1547 738.5L1460 770L1474.5 822L1554 793.5M1561.5 790.5L1554 793.5M1554 793.5L1565.5 832.5M1565.5 832.5L1575 828.5L1610.74 841M1565.5 832.5L1487.5 861L1573 1172.63M1610.74 841L1691 1130L1573 1172.63M1573 1172.63L1522.5 1190.88M1459.88 651.5L1549.4 619.5M1459.88 651.5L1470.72 690.5M1459.88 651.5L1449.46 614M1477.39 714.5L1449 724.5M1477.39 714.5L1475 705.906M1475.5 710.5L1448.18 720M1448.18 720L1446.89 715.5M1475 705.906L1446.89 715.5M1475 705.906L1473.91 702M1446.89 715.5L1445.75 711.5M1473.91 702L1445.75 711.5M1473.91 702L1472.8 698M1445.75 711.5L1444.6 707.5M1472.8 698L1444.6 707.5M1472.8 698L1471.83 694.5M1444.6 707.5L1443.45 703.5M1471.83 694.5L1443.45 703.5M1471.83 694.5L1470.72 690.5M1443.45 703.5L1442.3 699.5M1470.72 690.5C1470.14 690.9 1451.54 696.667 1442.3 699.5M1442.3 699.5L1441.16 695.5M1469 686.5L1441.16 695.5M1449.46 614L1421.47 623.5M1449.46 614L1448.35 610M1421.47 623.5L1420.36 619.5M1448.35 610C1447.67 610 1429.41 616.333 1420.36 619.5M1448.35 610L1447.1 605.5M1420.36 619.5L1419.11 615M1447.1 605.5L1419.11 615M1447.1 605.5L1445.85 601M1419.11 615L1417.86 610.5M1445.85 601L1417.86 610.5M1445.85 601L1444.74 597M1417.86 610.5L1416.75 606.5M1444.74 597C1443.75 597.4 1425.67 603.5 1416.75 606.5M1444.74 597L1443.5 592.547M1416.75 606.5L1415.5 602M1443.5 592.547C1442.7 592.909 1424.5 599 1415.5 602M1443.5 592.547L1442.38 588.5M1415.5 602L1414.39 598M1442.38 588.5L1414.39 598M1442.38 588.5L1441.26 584.5M1441.26 584.5L1412.5 594M1487.5 504.374L1484 505.638M1487.5 504.374L1493 522.334M1498.5 540.294L1495 541.597M1498.5 540.294L1493 522.334M1484 505.638L1495 541.597M1484 505.638L1477 508.166M1495 541.597L1491.23 543M1480.5 507.5L1491.23 543M1491.23 543L1488 544.204M1477 508.166L1488 544.204M1477 508.166L1473.31 509.5M1488 544.204L1484.52 545.5M1473.31 509.5L1484.52 545.5M1473.31 509.5L1470 510.694M1484.52 545.5L1481.5 546.625M1470 510.694L1481.5 546.625M1470 510.694L1466.5 511.958M1481.5 546.625L1478 547.929M1466.5 511.958L1478 547.929M1466.5 511.958L1463 513.222M1478 547.929L1474.5 549.232M1463 513.222L1474.5 549.232M1463 513.222L1459.5 514.486M1459.5 514.486L1471 550M1459.5 514.486L1456 515.75M1456 515.75L1461.95 534M1467.5 551L1461.95 534M1493 522.334L1461.95 534M1339 369.5L1344 384.51M1344 384.51L1341.21 385.5M1336 370.5L1341.21 385.5M1341.21 385.5L1338.03 386.625M1333 371.5L1338.03 386.625M1326.29 427.5L1324.39 420.5M1326.29 427.5L1330.08 441.5M1344 418.174L1325.5 424M1344 418.174L1342.9 414.5M1342.9 414.5L1324.39 420.5M1342.9 414.5L1341.84 411M1324.39 420.5L1323.44 417M1323.44 417L1341.84 411M1323.44 417L1322.49 413.5M1341.84 411L1340.79 407.5M1322.49 413.5L1340.79 407.5M1322.49 413.5L1321.54 410M1340.79 407.5L1339.74 404M1321.54 410L1339.74 404M1321.54 410L1319.78 403.5M1339.74 404L1338.69 400.5M1321 406.5L1338.69 400.5M1338.69 400.5L1337.63 397M1319.78 403.5L1337.63 397M1319.78 403.5L1318.97 400.5M1337.63 397L1336.73 394M1318.97 400.5L1336.73 394M1318.97 400.5L1318.08 397.25M1336.73 394L1335.79 390.875M1318.08 397.25L1335.79 390.875M1365.13 429.5L1362.07 430.55M1330.08 441.5L1349.07 435M1349.07 435L1355.5 432.798M1348.01 420.5L1352 433.5M1348.01 420.5L1351.5 419.344M1351.5 419.344L1355.5 432.798M1351.5 419.344L1354.71 418.277M1355.5 432.798L1359 431.599M1354.71 418.277L1359 431.599M1354.71 418.277L1358.15 417.139M1359 431.599L1362.07 430.55M1358.15 417.139L1362.07 430.55M1285 278L1297 273L1288 249.5L1276 254.618M1285 278L1280.57 266.5M1285 278L1283.29 278.733M1254 264L1265.26 259.2M1276 254.618L1280.57 266.5M1276 254.618L1274 255.471M1270 271L1265.26 259.2M1270 271L1274.5 282.5L1276.83 281.5M1270 271L1274.35 269.147M1280.57 266.5L1278.71 267.294M1265.26 259.2L1269.73 257.292M1267.5 258.5L1272 269.5L1276.83 281.5M1274.5 269L1269.73 257.292M1269.73 257.292L1272 256.324M1272 256.324L1276.5 268L1278.71 267.294M1272 256.324L1274 255.471M1278.71 267.294L1274 255.471M1278.71 267.294L1276.53 268.221M1278.71 267.294L1283.29 278.733M1299.04 348.5L1283 290L1103.5 350.921M1299.04 348.5L1324 439.5H1169M1299.04 348.5L1273 357L1263.5 325.5L1277 321M1277 321L1282 339M1277 321L1274 309.5L1153.5 351.5L1169 439.5M1169 439.5H1151.5L1107.5 450.776M1107.5 450.776C1105.1 438.155 1103.17 428 1102.5 424.5L1116.5 420L1106.15 365M1107.5 450.776L1090 455.261M1103.5 350.921L1106.15 365M1103.5 350.921L1100 352.109M1072.5 361.442L1084 357.539M1072.5 361.442L1075.16 375.5M1072.5 361.442L1063.5 364.497M1079.5 398.5L1077.33 387M1083 416.5L1090 455.261M1090 455.261L1081.26 457.5M1084 357.539L1087.59 374.5M1084 357.539L1086.75 356.606M1077.33 387L1089.5 383.5L1088.86 380.5M1077.33 387L1076.81 384.25M1106.15 365C1106.03 365 1104.84 365.377 1102.96 366M1075.16 375.5L1075.72 378.5M1075.16 375.5C1079.13 374.125 1084.69 372.209 1090 370.39M1087.59 374.5L1075.72 378.5M1087.59 374.5L1088.23 377.5M1075.72 378.5L1076.29 381.5M1088.23 377.5L1076.29 381.5M1088.23 377.5L1088.86 380.5M1076.29 381.5L1076.81 384.25M1088.86 380.5L1076.81 384.25M1100 352.109L1102.96 366M1100 352.109L1096.5 353.297M1102.96 366C1101.98 366.325 1100.81 366.717 1099.5 367.157M1096.5 353.297L1099.5 367.157M1096.5 353.297L1093 354.485M1099.5 367.157C1098.42 367.522 1097.24 367.921 1096 368.342M1093 354.485L1096 368.342M1093 354.485L1089.5 355.673M1096 368.342C1094.88 368.724 1093.7 369.124 1092.5 369.535M1089.5 355.673L1092.5 369.535M1089.5 355.673L1086.75 356.606M1092.5 369.535C1091.68 369.816 1090.84 370.101 1090 370.39M1086.75 356.606L1090 370.39M1063.5 364.497L1035.5 374C1037.25 383.398 1039.56 395.841 1041.9 408.5M1063.5 364.497L1070.38 400.5M1081.26 457.5L1052 465C1052 463.942 1048.92 446.789 1045.21 426.5M1081.26 457.5L1073.91 419M1041.9 408.5L1070.38 400.5M1041.9 408.5C1043.01 414.554 1044.14 420.657 1045.21 426.5M1070.38 400.5L1073.91 419M1045.21 426.5L1073.91 419M1295.5 413H1305M1295.5 413L1294 408.25M1295.5 413L1298.21 422.219M1295.5 413H1293M1295.5 411H1304.93M1304.93 411L1308.5 422L1298.21 422.219M1304.93 411L1304.04 408.25M1294 408.25H1304.04M1294 408.25L1293.25 405.875M1304.04 408.25L1303.27 405.875M1293.25 405.875L1292.5 403.5H1302.5L1303.27 405.875M1293.25 405.875H1303.27M1298.21 422.219L1295.75 422.271M1293 413L1295.75 422.271M1293 413H1290.5M1295.75 422.271L1293.25 422.324M1290.5 413L1293.25 422.324M1290.5 413H1288M1293.25 422.324L1290.5 422.383M1288 413L1290.5 422.383M1288 413H1285.5M1290.5 422.383L1288 422.436M1285.5 413H1283L1285 422.5L1288 422.436M1285.5 413L1288 422.436M1276.83 281.5L1279 280.571M1274.35 269.147L1279 280.571M1274.35 269.147L1276.53 268.221M1279 280.571L1283.29 278.733M1276.53 268.221L1281 279.5M1116.5 299.185L1113.52 291M1084 209.991L1035.5 230.592M1084 209.991L1113.52 291M1035.5 230.592L1055.82 286.5M1035.5 230.592L936 272.855M1113.52 291L1080 305M1080 305L1078.44 300.75M1080 305L1065 311M1053.5 281.5L1069 275L1072.3 284M1055.82 286.5C1056.36 286.5 1065.83 282.167 1070.5 280M1055.82 286.5L1058.73 294.5M1072.3 284L1057.5 290.5M1072.3 284L1073.77 288M1073.77 288L1058.73 294.5M1073.77 288L1075.23 292M1058.73 294.5L1060.18 298.5M1075.23 292C1075.05 292 1065.12 296.333 1060.18 298.5M1075.23 292L1076.88 296.5M1060.18 298.5L1061.82 303M1076.88 296.5L1061.82 303M1076.88 296.5L1078.44 300.75M1078.44 300.75L1063.5 307M936 272.855L977 385.603M936 272.855L801 330.197M977 385.603L842.041 443M842.041 443L829.307 408M801 330.197L813.48 364.5M829.307 408L810.5 415.5M829.307 408L827.306 402.5M810.5 415.5L812 419.5L760.217 441.5M810.5 415.5L808.64 410.5M760.217 441.5L743.382 394.5M794.5 372.5L743.382 394.5M794.5 372.5L813.48 364.5M794.5 372.5L796.174 377M813.48 364.5L815.117 369M815.117 369L796.174 377M815.117 369L816.573 373M796.174 377L797.663 381M816.573 373L797.663 381M816.573 373L818.392 378M797.663 381L799.5 385.938M818.392 378L799.5 385.938M818.392 378L820.211 383M799.5 385.938L801.384 391M820.211 383L801.384 391M820.211 383L821.848 387.5M801.384 391L803 395.344M821.848 387.5L803 395.344M821.848 387.5L823.667 392.5M803 395.344L804.919 400.5M823.667 392.5L804.919 400.5M823.667 392.5L827.306 402.5M804.919 400.5L806.779 405.5M825 397.5L806.779 405.5M806.779 405.5L808.64 410.5M827.306 402.5L808.64 410.5M806.5 735.34L819.5 810L873.268 799M806.5 735.34C796.273 737.358 786.114 739.36 776.5 741.251M776.5 741.251L790 815L728.96 827.5M728.96 827.5L727.742 820.5M728.96 827.5L732.787 849.5M783.383 857.5L782 851L768.5 853.5L775.5 883.5M783.383 857.5L757 863L757.735 866.5M783.383 857.5L784.128 861M761.932 886.5L765.5 903.5L792 898L788.277 880.5M761.932 886.5L788.277 880.5M761.932 886.5L761.198 883M788.277 880.5L787.532 877M761.198 883L787.532 877M761.198 883L760.463 879.5M787.532 877L786.787 873.5M760.463 879.5L786.787 873.5M760.463 879.5L759.728 876M786.787 873.5L786.043 870M759.728 876L786.043 870M759.728 876L759.099 873M786.043 870L784.128 861M759.099 873L786.043 867M759.099 873L758.469 870M758.469 870L785 864M758.469 870L757.735 866.5M757.735 866.5L784.128 861M780.191 1122C784.038 1121.2 835.156 1114.67 860.234 1111.5M780.191 1122L732.787 849.5M663.5 763.62L675.707 830.5M663.5 763.62L621.5 772.116M681 859.5L660.5 864L718.562 1195.5M681 859.5L675.707 830.5M681 859.5L684 858.921M726.531 1241L700.5 1246.06M726.531 1241L722.941 1220.5M675.707 830.5C675.928 830.5 676.92 830.342 678.5 830.061M727.742 820.5C721.017 821.838 711.535 823.714 702.5 825.48M732.787 849.5L708 854.286M702.5 825.48L708 854.286M702.5 825.48C701.493 825.677 700.491 825.873 699.5 826.066M708 854.286L704.782 854.908M699.5 826.066L704.782 854.908M699.5 826.066C698.488 826.263 697.486 826.458 696.5 826.649M704.782 854.908L702 855.445M678.5 830.061L684 858.921M678.5 830.061C679.342 829.912 680.351 829.728 681.5 829.515M684 858.921L687 858.341M681.5 829.515L687 858.341M681.5 829.515C682.416 829.346 683.42 829.157 684.5 828.954M687 858.341L693 857.183M684.5 828.954L690 857.5M684.5 828.954C685.446 828.775 686.449 828.585 687.5 828.384M687.5 828.384L693 857.183M687.5 828.384C688.462 828.2 689.464 828.008 690.5 827.809M693 857.183L696 856.604M690.5 827.809L696 856.604M690.5 827.809C691.473 827.622 692.475 827.429 693.5 827.231M696 856.604L702 855.445M693.5 827.231L699 855.5M693.5 827.231C694.48 827.041 695.482 826.847 696.5 826.649M696.5 826.649L702 855.445M700.5 1246.06L569.5 1271.55M700.5 1246.06C699.507 1240.38 698.232 1233.07 696.915 1225.5M569.5 1271.55L558.5 1210L690 1185C690 1185.31 691.073 1191.67 692.589 1200.5M569.5 1271.55L541 1277.09M459.185 1231.5L469.5 1291L541 1277.09M459.185 1231.5L454.071 1202M459.185 1231.5L479.5 1227.51M541 1277.09L530.5 1217.5L506.5 1222.21M454.071 1202L420.354 1007.5M454.071 1202L474 1198.12M420.354 1007.5L415.76 981M420.354 1007.5L453 1001.39M415.76 981C415.867 980.777 430.733 977.852 448 974.527M459 804.988L487.5 967C476.949 968.992 461.717 971.886 448 974.527M459 804.988L483 800.133M448 974.527L453 1001.39M453 1001.39L492.5 994L526 1188L490.036 1195M500.5 1193.5L506.5 1222.21M506.5 1222.21L503.247 1222.85M474 1198.12C474 1198.82 477.667 1218.01 479.5 1227.51M474 1198.12L477.191 1197.5M479.5 1227.51L483 1226.82M477.191 1197.5L483 1226.82M477.191 1197.5L480.5 1196.86M483 1226.82L486.5 1226.14M480.5 1196.86L486.5 1226.14M480.5 1196.86L483.75 1196.22M486.5 1226.14L490 1225.45M497 1194L503.247 1222.85M503.247 1222.85L493.5 1224.76M493.5 1194.5L500 1224M490.036 1195L496.5 1224M490.036 1195L487 1195.59M487 1195.59L493.5 1224.76M487 1195.59L483.75 1196.22M493.5 1224.76L490 1225.45M483.75 1196.22L490 1225.45M621.5 772.116L640.5 880.5L593.5 889.525M621.5 772.116L574.5 781.624M483 800.133L502.5 907L593.5 889.525M483 800.133L574.5 781.624M574.5 781.624L593.5 889.525M692.589 1200.5C692.81 1201.78 693.04 1203.12 693.278 1204.5M692.589 1200.5L705.576 1198M718.562 1195.5L719.263 1199.5M718.562 1195.5L705.576 1198M719.263 1199.5L693.278 1204.5M719.263 1199.5L719.876 1203M693.278 1204.5C693.474 1205.64 693.676 1206.81 693.882 1208M693.882 1208L719.876 1203M693.882 1208C694.084 1209.17 694.291 1210.37 694.5 1211.58M719.876 1203L720.489 1206.5M694.5 1211.58L720.489 1206.5M694.5 1211.58C694.695 1212.71 694.893 1213.85 695.093 1215M720.489 1206.5L721.102 1210M695.093 1215L721.102 1210M695.093 1215C695.294 1216.16 695.496 1217.33 695.699 1218.5M721.102 1210L721.715 1213.5M695.699 1218.5L721.715 1213.5M695.699 1218.5C695.901 1219.66 696.104 1220.83 696.307 1222M721.715 1213.5L722.328 1217M696.307 1222L722.328 1217M696.307 1222C696.51 1223.17 696.713 1224.34 696.915 1225.5M722.328 1217L722.941 1220.5M696.915 1225.5L710.5 1222.89M722.941 1220.5L710.5 1222.89M705.576 1198L710.5 1222.89M77 958.623L88.9566 996.5M77 958.623L102.5 950.622M123 944.189L135 981.5M123 944.189L119.5 945.287M135 981.5L160 973.5L209 1123.5L190.5 1130M135 981.5L131.5 982.64M190.5 1130L195.045 1144M190.5 1130L187 1131.17M280.124 1099L327 1246L327.499 1251.5M280.124 1099L230 1115.5L255.5 1193.5L215.5 1207L206.734 1180M136.781 1148L152.406 1197.5M136.781 1148L180.5 1133.35M136.781 1148L88.9566 996.5M206.734 1180L201.539 1164M206.734 1180L203.55 1181.03M152.406 1197.5L184 1187.32M168 1138L172.5 1151.5M172.5 1151.5L170 1152.5L176.5 1172L182.175 1170.19M172.5 1151.5L176 1150.34M195.045 1144L201.539 1164M195.045 1144L191.749 1145.1M201.539 1164L198 1165.13M179 1171.5L184 1187.32M184 1187.32L187.5 1186.2M182.175 1170.19L187.5 1186.2M182.175 1170.19L185 1169.28M187.5 1186.2L190.5 1185.23M185 1169.28L190.5 1185.23M185 1169.28L188.5 1168.17M190.5 1185.23L194 1184.1M188.5 1168.17L194 1184.1M188.5 1168.17L191.749 1167.13M194 1184.1L200.367 1182.05M191.749 1167.13L197.5 1183.5M191.749 1167.13L198 1165.13M195.045 1166.5L200.367 1182.05M200.367 1182.05L203.55 1181.03M198 1165.13L203.55 1181.03M187 1131.17L191.749 1145.1M187 1131.17L180.5 1133.35M191.749 1145.1L188.5 1146.18M184 1132.5L188.5 1146.18M188.5 1146.18L185 1147.34M180.5 1133.35L185 1147.34M185 1147.34L176 1150.34M177.5 1134.5L182 1148M174.5 1135.5L179 1149M171.5 1136.5L176 1150.34M327.499 1251.5L242 1278.38M327.499 1251.5L332.579 1307.5M242 1278.38L246 1322.5L274 1313.5L274.939 1324M279 1369.44L274.939 1324M279 1369.44L307.75 1360.08M274.939 1324L304 1315L304.166 1317M307.75 1360.08L306.08 1340M332.579 1307.5C332.516 1307.9 313.611 1314 304.166 1317M332.579 1307.5L333 1312.14M304.166 1317L304.541 1321.5M333 1312.14L304.541 1321.5M333 1312.14L333.35 1316M304.541 1321.5L305.5 1333.03M305 1325.5L333.35 1316M333.35 1316L333.713 1320M305.5 1329L333.713 1320M333.713 1320L334.076 1324M305.5 1333.03L334.076 1324M305.5 1333.03L305.788 1336.5M334.076 1324L334.393 1327.5M305.788 1336.5L334.393 1327.5M305.788 1336.5L306.08 1340M334.393 1327.5L334.711 1331M306.08 1340L334.711 1331M88.9566 996.5L111 989.319M98.7284 951.805L111 989.319M111 989.319L114.375 988.219M119.5 945.287L131.5 982.64M119.5 945.287L115.636 946.5M131.5 982.64L128 983.78M115.636 946.5L128 983.78M115.636 946.5L112 947.641M128 983.78L124.5 984.921M112 947.641L124.5 984.921M112 947.641L109 948.582M124.5 984.921L117.75 987.12M109 948.582L121 985.5M109 948.582L102.5 950.622M106 950L117.75 987.12M117.75 987.12L114.375 988.219M102.5 950.622L114.375 988.219M565.657 1122L571.5 1154.5L660.5 1137L654.5 1104M565.657 1122L563.5 1110L652.5 1093L654.5 1104M565.657 1122L550 1125L558.5 1177L680 1153.5L670.5 1101L654.5 1104M1036.98 963.5L1049 662.5H1034M1036.98 963.5H1022.24M1034 662.5L1022.24 963.5M625.5 915.5L528.5 933.5L556.5 1095.5L654 1076.5L625.5 915.5ZM1274 678L1105 681.5V924.5L1275.5 922L1274 678Z" stroke="black"/>
<path d="M1384 189L1386 188.5M1344 203.5L1361.5 266.5M1413.5 413.5L1485.5 389M1441 584.5L1435.5 564L1407.5 574L1413 593.5M1568.5 831.5L1612.91 990.5M1655.5 1143L1612.91 990.5M1612.91 990.5L1531 1020.5M1227.5 149.5L1259.5 237.5L1305.5 217.5M1179.5 170L1212 258M1134 189L1166.5 277.5M1069 275L1085.75 268M1102.5 261L1085.75 268M1085.75 268L1097 298M1284.5 468L1283.5 542M1238 469.5L1237 543M1194 469.5L1192 544M1152.5 471L1150.5 545M1111 471L1109.5 545M1068.5 472.5L1066 546M1024.5 473.5L1022.5 547M912 779.5L874 780.5M895.5 1120H860M895 1155H858.5M996.5 1240L999 1153.5H1077M1003.5 1026.5H1081.5M1002.5 1066H1080.5M1000.5 1119.5H1078M670.5 799.5L722 789.5M678.5 964.5L750 949.5M696 1065.5L767.5 1051M712.5 1157.5L784 1143.5M437.5 1105L509 1092.5M407.5 934.5L479.5 920.5M397 873.5L468.5 859M216 1207.5L238 1279M256 1193.5C256.8 1193.1 289 1182.67 305 1177.5M236 1133L285.5 1117M115 1078.5L186.5 1054.5M236.5 964L274.367 1081M275.5 1084.5L274.367 1081M238 966.5L247.5 964L260 967L292 1067.5L285 1077.5L274.367 1081" stroke="black"/>
</svg>
